PathFileType	4	(X/Y/Z)	/Users/itak/Documents/Research/Walk-IL/dataset/trc/00532_00183.trc
DataRate	CameraRate	NumFrames	NumMarkers	Units	OrigDataRate	OrigDataStartFrame	OrigNumFrames
100.000000	100.000000	4	53	mm	100.000000	185	495
Frame#	Time	RPSI			LPSI			L3			STRN			T10			C7			CLAV			RBAK			LBAK			LSHO			LUPA			LAEL			LAOL			LWTS			LWPS			LFRA			LIFD			LHPS			LHTS			RSHO			RUPA			RAEL			RAOL			RWTS			RWPS			RFRA			RIFD			RHTS			RHPS			RBHD			LFHD			RFHD			LBHD			LHIP			RHIP			RASI			LASI			LKNE			LTHI			LANK			LTIP			LTOE			LMT1			LMT5			LHEE			RKNE			RTHI			RANK			RTIP			RTOE			RMT1			RMT5			RHEE			
		X1	Y1	Z1	X2	Y2	Z2	X3	Y3	Z3	X4	Y4	Z4	X5	Y5	Z5	X6	Y6	Z6	X7	Y7	Z7	X8	Y8	Z8	X9	Y9	Z9	X10	Y10	Z10	X11	Y11	Z11	X12	Y12	Z12	X13	Y13	Z13	X14	Y14	Z14	X15	Y15	Z15	X16	Y16	Z16	X17	Y17	Z17	X18	Y18	Z18	X19	Y19	Z19	X20	Y20	Z20	X21	Y21	Z21	X22	Y22	Z22	X23	Y23	Z23	X24	Y24	Z24	X25	Y25	Z25	X26	Y26	Z26	X27	Y27	Z27	X28	Y28	Z28	X29	Y29	Z29	X30	Y30	Z30	X31	Y31	Z31	X32	Y32	Z32	X33	Y33	Z33	X34	Y34	Z34	X35	Y35	Z35	X36	Y36	Z36	X37	Y37	Z37	X38	Y38	Z38	X39	Y39	Z39	X40	Y40	Z40	X41	Y41	Z41	X42	Y42	Z42	X43	Y43	Z43	X44	Y44	Z44	X45	Y45	Z45	X46	Y46	Z46	X47	Y47	Z47	X48	Y48	Z48	X49	Y49	Z49	X50	Y50	Z50	X51	Y51	Z51	X52	Y52	Z52	X53	Y53	Z53	

186	1.85	-789.9151611328125	956.4188232421875	-230.9129943847656	-737.3427124023438	942.8953857421875	-342.5386047363281	-757.5818481445312	1026.919677734375	-288.2713623046875	-546.8154907226562	1178.618286132812	-197.8773498535156	-765.1643676757812	1132.379516601562	-282.3038024902344	-718.7477416992188	1360.277709960938	-254.3449859619141	-576.4683837890625	1275.527465820312	-205.3129119873047	-797.5509033203125	1238.29248046875	-196.6921844482422	-712.607177734375	1310.880859375	-347.5946655273438	-596.0862426757812	1356.260375976562	-379.9410400390625	-589.858642578125	1232.303588867188	-446.4428100585938	-581.943603515625	1024.326171875	-479.1149291992188	-671.4583129882812	1015.761352539062	-437.3567199707031	-516.0476684570312	832.5315551757812	-435.2800598144531	-582.0044555664062	801.8486328125	-493.5231018066406	-569.4892578125	938.9277954101562	-482.4384765625	-520.5551147460938	674.9280395507812	-431.8866882324219	-563.6083984375	747.6713256835938	-483.9992370605469	-505.47705078125	755.177734375	-455.2477722167969	-719.5743408203125	1347.140747070312	-95.77704620361328	-762.7085571289062	1280.52978515625	-55.75471496582031	-818.5160522460938	1017.728942871094	-38.38025665283203	-846.1171264648438	1012.388366699219	-98.51900482177734	-749.68115234375	804.0508422851562	-29.27542304992676	-839.9962158203125	793.2681884765625	-37.46503829956055	-826.6823120117188	963.8506469726562	-35.15908432006836	-770.2890625	645.0549926757812	-37.90264892578125	-763.6474609375	709.9368286132812	-9.115588188171387	-830.70068359375	717.3292846679688	-30.38490104675293	-722.2186889648438	1496.150146484375	-150.4665832519531	-572.9221801757812	1588.016723632812	-247.2403717041016	-611.2299194335938	1574.866943359375	-126.4913940429688	-686.8684692382812	1506.26953125	-305.2512512207031	-585.5161743164062	860.70751953125	-408.1000671386719	-744.4456787109375	867.3129272460938	-66.78495788574219	-628.5471801757812	910.404541015625	-89.24247741699219	-532.0404663085938	903.4247436523438	-308.3881225585938	-530.20556640625	440.6323547363281	-335.5841369628906	-535.8682861328125	600.1749877929688	-359.0938720703125	-857.2793579101562	218.8160095214844	-495.8802795410156	-624.8035278320312	346.6142578125	-388.7015686035156	-816.6798095703125	46.61346817016602	-401.5772094726562	-858.153076171875	112.029914855957	-388.0516662597656	-820.01416015625	117.2746505737305	-486.2933959960938	-900.6195678710938	258.3268737792969	-448.4343566894531	-650.1851196289062	481.6152954101562	-92.05724334716797	-704.8770751953125	737.8192138671875	-51.83941268920898	-684.7025756835938	49.98185729980469	-153.5712738037109	-625.8383178710938	335.1847839355469	-105.5193328857422	-484.53466796875	42.79341125488281	-103.7672653198242	-528.1361694335938	46.97949600219727	-167.1923217773438	-589.2725219726562	45.83602523803711	-92.19193267822266	-710.2098999023438	40.08397674560547	-218.9944000244141	
187	1.86	-783.7119750976562	957.193359375	-226.4912109375	-731.2703247070312	943.5145263671875	-338.2143249511719	-751.6906127929688	1027.869262695312	-283.6389770507812	-540.331298828125	1179.940185546875	-194.5046691894531	-759.2781982421875	1133.485229492188	-277.5500183105469	-712.6629638671875	1361.399658203125	-249.9070434570312	-570.0993041992188	1276.756469726562	-201.7850799560547	-790.9547729492188	1239.360473632812	-191.5034332275391	-707.03515625	1311.864868164062	-343.1741638183594	-590.7307739257812	1357.352783203125	-376.225341796875	-584.5443725585938	1233.39892578125	-442.7030334472656	-575.7012329101562	1025.336791992188	-474.9168090820312	-665.1612548828125	1016.535278320312	-433.185302734375	-509.0063171386719	833.98974609375	-430.9142150878906	-574.5646362304688	803.1494140625	-489.3416748046875	-562.8421630859375	940.0963134765625	-478.156982421875	-512.4805908203125	676.390625	-427.6404418945312	-555.878173828125	748.971923828125	-479.8054809570312	-497.9839782714844	756.68798828125	-450.9269409179688	-712.3591918945312	1348.454956054688	-91.36782836914062	-754.9269409179688	1281.8408203125	-50.61508941650391	-808.8324584960938	1018.745788574219	-31.0372257232666	-837.3582763671875	1012.792053222656	-90.66770935058594	-738.3969116210938	805.72021484375	-21.22443771362305	-828.8550415039062	794.2825317382812	-28.06488037109375	-816.62451171875	964.8191528320312	-27.32095527648926	-758.147216796875	646.5426025390625	-27.84407234191895	-751.57177734375	711.7719116210938	0.1984688639640808	-818.9329223632812	718.5006103515625	-20.36924743652344	-715.2994995117188	1497.395751953125	-146.2434692382812	-565.824951171875	1589.0107421875	-243.0595092773438	-603.997802734375	1575.726196289062	-122.3146591186523	-680.1181640625	1507.710693359375	-301.1046447753906	-579.0391235351562	862.0404663085938	-403.6186218261719	-738.2633056640625	867.7116088867188	-62.68046188354492	-622.2056884765625	911.3594360351562	-84.81764221191406	-525.7527465820312	905.3428955078125	-304.0889282226562	-513.0968627929688	444.1879577636719	-325.89111328125	-524.0929565429688	602.87841796875	-352.2298278808594	-838.6084594726562	220.7811126708984	-485.7270202636719	-606.72021484375	350.3023071289062	-378.36376953125	-794.0662231445312	49.35603713989258	-391.8136596679688	-836.9210815429688	113.9520645141602	-377.9998779296875	-799.1214599609375	120.2896194458008	-476.2825012207031	-882.713623046875	259.3977355957031	-438.1866455078125	-647.8487548828125	481.2176818847656	-89.447021484375	-699.7228393554688	737.9395141601562	-48.19059371948242	-684.714599609375	49.87879180908203	-153.5188598632812	-624.7344970703125	334.7119140625	-103.9893112182617	-484.5865173339844	42.81919479370117	-103.6890182495117	-528.2681884765625	47.03646087646484	-167.0006866455078	-589.2929077148438	45.6733512878418	-92.02466583251953	-710.304931640625	40.19065856933594	-218.8970642089844	
188	1.87	-777.540283203125	957.8903198242188	-222.148681640625	-725.1217041015625	944.29638671875	-333.9326171875	-745.817626953125	1028.839721679688	-279.056640625	-533.939208984375	1181.32666015625	-191.0924224853516	-753.4287719726562	1134.588012695312	-272.9035949707031	-706.6525268554688	1362.528198242188	-245.5912933349609	-563.8326416015625	1278.04833984375	-198.2831420898438	-784.494384765625	1240.469482421875	-186.5019989013672	-701.4817504882812	1312.846313476562	-338.8589172363281	-585.4080200195312	1358.443359375	-372.5608520507812	-579.2467651367188	1234.500732421875	-439.0256958007812	-569.492919921875	1026.35888671875	-470.7550354003906	-658.9226684570312	1017.337219238281	-429.0706481933594	-501.9336242675781	835.498779296875	-426.5762634277344	-567.1312255859375	804.4435424804688	-485.1873474121094	-556.228759765625	941.3096313476562	-473.9248657226562	-504.36669921875	677.8882446289062	-423.4101257324219	-548.0692749023438	750.2560424804688	-475.6685180664062	-490.4031372070312	758.2664794921875	-446.63525390625	-705.2986450195312	1349.841064453125	-87.10434722900391	-747.2871704101562	1283.237060546875	-45.61075592041016	-799.0647583007812	1019.828002929688	-23.77188491821289	-828.4824829101562	1013.236206054688	-82.88555908203125	-726.9969482421875	807.4603271484375	-13.19849967956543	-817.5865478515625	795.3898315429688	-18.69857978820801	-806.4571533203125	965.86865234375	-19.54880905151367	-745.8905029296875	648.133544921875	-17.80003356933594	-739.3807373046875	713.69189453125	9.491718292236328	-807.0320434570312	719.7713012695312	-10.3992805480957	-708.3643188476562	1498.7099609375	-142.0971984863281	-558.60205078125	1589.965087890625	-238.9141540527344	-596.6777954101562	1576.522338867188	-118.1805267333984	-673.3125610351562	1509.2529296875	-297.0428771972656	-572.361083984375	863.6351928710938	-399.1806945800781	-732.2208251953125	867.9603271484375	-58.66352844238281	-615.9481201171875	912.2349853515625	-80.35532379150391	-519.48291015625	907.352294921875	-299.7140197753906	-496.474609375	448.1968994140625	-316.2315979003906	-512.2483520507812	605.9149169921875	-345.3385314941406	-819.4341430664062	221.2310791015625	-475.2603149414062	-588.871337890625	353.9802856445312	-368.0332946777344	-770.008544921875	51.61545181274414	-380.997314453125	-814.6589965820312	114.923210144043	-367.2060241699219	-777.1813354492188	122.1400527954102	-465.5286254882812	-864.4866333007812	258.9104919433594	-427.8209533691406	-645.4564208984375	480.7999572753906	-87.01150512695312	-694.503173828125	737.9464721679688	-44.63587951660156	-684.7111206054688	49.81380081176758	-153.4784393310547	-623.549072265625	334.2583618164062	-102.6034317016602	-484.6127624511719	42.82034301757812	-103.6341323852539	-528.3538818359375	47.06874084472656	-166.8640289306641	-589.295654296875	45.54021835327148	-91.89232635498047	-710.3884887695312	40.31658935546875	-218.8072814941406	
189	1.88	-771.3519897460938	958.5065307617188	-217.8701019287109	-718.9005126953125	945.1884765625	-329.6964416503906	-739.9083862304688	1029.799560546875	-274.5037841796875	-527.6301879882812	1182.753051757812	-187.60693359375	-747.5846557617188	1135.646606445312	-268.3428344726562	-700.7147216796875	1363.631225585938	-241.3916320800781	-557.6573486328125	1279.380859375	-194.7781066894531	-778.1590576171875	1241.578369140625	-181.675537109375	-695.9468383789062	1313.793823242188	-334.6337280273438	-580.109130859375	1359.493896484375	-368.9341430664062	-573.9597778320312	1235.571655273438	-435.3889465332031	-563.3186645507812	1027.362548828125	-466.6517028808594	-652.7437133789062	1018.132507324219	-425.0165405273438	-494.8240661621094	837.0324096679688	-422.2860107421875	-559.7307739257812	805.6653442382812	-481.0423278808594	-549.65625	942.5285034179688	-469.7539367675781	-496.2068176269531	679.4073486328125	-419.1820373535156	-540.1947021484375	751.4789428710938	-471.5824279785156	-482.7374572753906	759.8883666992188	-442.3765869140625	-698.41162109375	1351.2705078125	-82.97571563720703	-739.8176879882812	1284.688598632812	-40.741455078125	-789.241455078125	1020.949523925781	-16.57793235778809	-819.5173950195312	1013.694396972656	-75.16584777832031	-715.4766845703125	809.2544555664062	-5.214104175567627	-806.1771850585938	796.5587158203125	-9.388635635375977	-796.2026977539062	966.9744262695312	-11.84114646911621	-733.4825439453125	649.8049926757812	-7.825890064239502	-727.0519409179688	715.6732788085938	18.71949005126953	-794.9739990234375	721.108642578125	-0.5036582350730896	-701.4188842773438	1500.093139648438	-138.0270385742188	-551.2488403320312	1590.839965820312	-234.816650390625	-589.2665405273438	1577.240112304688	-114.0977401733398	-666.4476928710938	1510.867919921875	-293.0631103515625	-565.486572265625	865.4368896484375	-394.7985229492188	-726.2763671875	868.0927734375	-54.70212936401367	-609.7473754882812	913.0059204101562	-75.85836029052734	-513.2297973632812	909.39794921875	-295.2663879394531	-480.3522644042969	452.5671997070312	-306.6340942382812	-500.3608703613281	609.2402954101562	-338.431884765625	-799.7705688476562	220.2331237792969	-464.4979248046875	-571.2610473632812	357.5313110351562	-357.73095703125	-744.6637573242188	53.30757522583008	-369.2858276367188	-791.4580078125	114.9585189819336	-355.7668762207031	-754.32080078125	122.8794555664062	-454.1360473632812	-845.9265747070312	256.8994140625	-417.31591796875	-643.0358276367188	480.360107421875	-84.697998046875	-689.21533203125	737.8578491210938	-41.15363311767578	-684.6952514648438	49.78002548217773	-153.4478912353516	-622.3196411132812	333.8181762695312	-101.3265914916992	-484.6236877441406	42.79948806762695	-103.5970306396484	-528.3997192382812	47.0801887512207	-166.7729949951172	-589.2905883789062	45.42798233032227	-91.78411102294922	-710.455810546875	40.45689392089844	-218.7318115234375	
